<svg width="133" height="48" viewBox="0 0 133 48" fill="none" xmlns="http://www.w3.org/2000/svg">
<rect width="48" height="48" rx="12" fill="#FD9228"/>
<path d="M66.1797 34.9023C66.1797 35.2018 66.0885 35.3971 65.9062 35.4883C65.737 35.5794 65.5286 35.625 65.2812 35.625C65.0599 35.625 64.8385 35.6055 64.6172 35.5664C64.4089 35.5404 64.207 35.4818 64.0117 35.3906C63.8294 35.2995 63.6667 35.1758 63.5234 35.0195C63.3932 34.8633 63.3021 34.6615 63.25 34.4141C63.0677 33.6328 62.9635 32.8711 62.9375 32.1289C62.9115 31.3737 62.8984 30.599 62.8984 29.8047V27.4023C62.8984 26.3086 62.944 25.1758 63.0352 24.0039C63.1263 22.819 63.224 21.6797 63.3281 20.5859C63.3281 20.5469 63.3346 20.5013 63.3477 20.4492C63.3607 20.3971 63.3672 20.3581 63.3672 20.332C63.3802 20.1888 63.3997 20.0326 63.4258 19.8633C63.4518 19.694 63.4909 19.5443 63.543 19.4141C63.6081 19.2708 63.6927 19.1536 63.7969 19.0625C63.9141 18.9714 64.0638 18.9258 64.2461 18.9258C64.4544 18.9258 64.6497 18.9714 64.832 19.0625C65.0273 19.1406 65.1966 19.2513 65.3398 19.3945C65.4831 19.5247 65.5938 19.6875 65.6719 19.8828C65.763 20.0781 65.8086 20.2799 65.8086 20.4883C65.8086 20.7096 65.8021 20.957 65.7891 21.2305C65.776 21.4909 65.7565 21.7383 65.7305 21.9727C65.7305 22.0378 65.724 22.1094 65.7109 22.1875C65.7109 22.2656 65.7044 22.3372 65.6914 22.4023C65.8737 22.0378 66.082 21.6602 66.3164 21.2695C66.5508 20.8659 66.8177 20.5013 67.1172 20.1758C67.4297 19.8372 67.7682 19.5638 68.1328 19.3555C68.5104 19.1471 68.9271 19.043 69.3828 19.043C69.7604 19.043 70.0729 19.1016 70.3203 19.2188C70.5677 19.3359 70.763 19.5052 70.9062 19.7266C71.0625 19.9349 71.1667 20.1823 71.2188 20.4688C71.2839 20.7552 71.3164 21.0612 71.3164 21.3867C71.3164 21.8294 71.3034 22.2786 71.2773 22.7344C71.2513 23.1771 71.2253 23.6198 71.1992 24.0625C71.1602 24.5182 71.1276 24.9674 71.1016 25.4102C71.0755 25.8529 71.0625 26.3021 71.0625 26.7578C71.0625 27.3047 71.0755 27.8711 71.1016 28.457C71.1276 29.0299 71.1667 29.5833 71.2188 30.1172C71.2708 30.638 71.3294 31.1133 71.3945 31.543C71.4596 31.9596 71.5247 32.2852 71.5898 32.5195C71.6419 32.7148 71.694 32.9427 71.7461 33.2031C71.8112 33.4505 71.8698 33.7109 71.9219 33.9844C71.987 34.2448 72.0391 34.4987 72.0781 34.7461C72.1172 34.9935 72.1367 35.2148 72.1367 35.4102C72.1367 35.6966 72.0195 35.8789 71.7852 35.957C71.5638 36.0352 71.3424 36.0742 71.1211 36.0742C70.8997 36.0742 70.6458 36.0547 70.3594 36.0156C70.0859 35.9896 69.8385 35.918 69.6172 35.8008C69.3438 35.6055 69.1615 35.332 69.0703 34.9805C68.9922 34.6289 68.9401 34.2839 68.9141 33.9453L68.8555 33.418C68.8164 33.1055 68.7643 32.6953 68.6992 32.1875C68.6341 31.6797 68.569 31.1198 68.5039 30.5078C68.4518 29.8958 68.4062 29.2643 68.3672 28.6133C68.3281 27.9492 68.3086 27.3047 68.3086 26.6797C68.3086 26.1198 68.3281 25.5794 68.3672 25.0586C68.4193 24.5378 68.4714 24.0104 68.5234 23.4766C68.5495 23.2031 68.569 22.9818 68.582 22.8125C68.5951 22.6432 68.6146 22.4219 68.6406 22.1484C68.3802 22.5651 68.1198 23.0534 67.8594 23.6133C67.599 24.1732 67.3516 24.7591 67.1172 25.3711C66.8828 25.9701 66.668 26.556 66.4727 27.1289C66.2904 27.7018 66.1471 28.2031 66.043 28.6328L65.9258 29.0625C65.8607 29.2708 65.8021 29.4792 65.75 29.6875C65.7109 29.8958 65.6914 30.0911 65.6914 30.2734C65.6914 30.5078 65.7044 30.7812 65.7305 31.0938C65.7565 31.3932 65.7891 31.6797 65.8281 31.9531C65.8672 32.2786 65.9128 32.6107 65.9648 32.9492C65.9648 32.9753 65.9779 33.0599 66.0039 33.2031C66.0299 33.3464 66.056 33.5156 66.082 33.7109C66.1081 33.9062 66.1276 34.1146 66.1406 34.3359C66.1667 34.5443 66.1797 34.7331 66.1797 34.9023ZM81.8438 22.1094C81.8438 22.2396 81.8307 22.3763 81.8047 22.5195C81.7786 22.6628 81.7526 22.793 81.7266 22.9102C81.7005 23.0534 81.6745 23.1901 81.6484 23.3203C81.6224 23.4375 81.6094 23.5547 81.6094 23.6719C81.6094 24.8828 81.6289 26.1003 81.668 27.3242C81.7201 28.5352 81.8503 29.7526 82.0586 30.9766C82.1237 31.4453 82.2018 31.901 82.293 32.3438C82.3841 32.7865 82.4883 33.2357 82.6055 33.6914L82.6445 33.8086V33.7695C82.6836 33.8607 82.7161 33.9583 82.7422 34.0625C82.7812 34.1536 82.8008 34.2513 82.8008 34.3555C82.8008 34.4987 82.7617 34.6159 82.6836 34.707C82.6185 34.7982 82.5339 34.8698 82.4297 34.9219C82.3255 34.974 82.2083 35.0065 82.0781 35.0195C81.9609 35.0326 81.8503 35.0391 81.7461 35.0391C81.3164 35.0391 80.9714 34.9935 80.7109 34.9023C80.4635 34.7982 80.2617 34.6615 80.1055 34.4922C79.9492 34.3099 79.832 34.0951 79.7539 33.8477C79.6888 33.6003 79.6302 33.3268 79.5781 33.0273L79.5195 32.6758C79.4674 32.4935 79.4349 32.2982 79.4219 32.0898C79.4089 31.9857 79.3958 31.9401 79.3828 31.9531C79.3828 31.9531 79.3763 31.901 79.3633 31.7969C79.181 32.1224 78.9661 32.474 78.7188 32.8516C78.4844 33.2161 78.2109 33.5612 77.8984 33.8867C77.599 34.1992 77.2734 34.4661 76.9219 34.6875C76.5703 34.8958 76.1927 35 75.7891 35C75.2292 35 74.793 34.8307 74.4805 34.4922C74.181 34.1536 73.9596 33.7435 73.8164 33.2617C73.6732 32.7669 73.5885 32.2591 73.5625 31.7383C73.5365 31.2044 73.5234 30.7422 73.5234 30.3516C73.5234 28.8672 73.569 27.3958 73.6602 25.9375C73.7643 24.4792 73.875 23.0143 73.9922 21.543C73.9922 21.5039 73.9922 21.4518 73.9922 21.3867C74.0052 21.3216 74.0117 21.2695 74.0117 21.2305C74.0247 21.0482 74.0378 20.8789 74.0508 20.7227C74.0638 20.5664 74.0964 20.4167 74.1484 20.2734V20.293C74.2005 20.0846 74.2721 19.9349 74.3633 19.8438C74.4674 19.7526 74.6237 19.707 74.832 19.707C75.0273 19.707 75.2227 19.7461 75.418 19.8242C75.6133 19.8893 75.7891 19.987 75.9453 20.1172C76.1016 20.2344 76.2253 20.3776 76.3164 20.5469C76.4206 20.7161 76.4727 20.9049 76.4727 21.1133C76.4727 21.2174 76.4727 21.3411 76.4727 21.4844C76.4727 21.6276 76.4661 21.7513 76.4531 21.8555C76.4531 21.9466 76.4466 22.0638 76.4336 22.207C76.4336 22.3372 76.4336 22.4479 76.4336 22.5391C76.3294 23.7891 76.2513 25.0326 76.1992 26.2695C76.1471 27.4935 76.1211 28.737 76.1211 30C76.1211 30.3516 76.1211 30.7031 76.1211 31.0547C76.1341 31.4062 76.1732 31.7578 76.2383 32.1094C76.668 31.5625 77.0391 30.8659 77.3516 30.0195C77.6641 29.1602 77.9245 28.2552 78.1328 27.3047C78.3542 26.3411 78.5299 25.3906 78.6602 24.4531C78.8034 23.5026 78.9076 22.6628 78.9727 21.9336C78.9727 21.8945 78.9727 21.849 78.9727 21.7969C78.9857 21.7448 78.9922 21.6992 78.9922 21.6602C79.0052 21.5169 79.0182 21.3802 79.0312 21.25C79.0443 21.1198 79.0898 20.9961 79.168 20.8789C79.168 20.7617 79.1745 20.638 79.1875 20.5078C79.2005 20.3776 79.2331 20.2604 79.2852 20.1562C79.3372 20.0391 79.4089 19.9479 79.5 19.8828C79.6042 19.8177 79.7474 19.7852 79.9297 19.7852C80.4505 19.7852 80.8607 19.9479 81.1602 20.2734C81.4596 20.5859 81.6224 20.9896 81.6484 21.4844C81.7135 21.5885 81.7591 21.6927 81.7852 21.7969C81.8242 21.888 81.8438 21.9922 81.8438 22.1094ZM88.4062 34.5117C88.4062 34.6549 88.3737 34.7786 88.3086 34.8828C88.2435 34.974 88.1589 35.0456 88.0547 35.0977C87.9635 35.1497 87.8594 35.1823 87.7422 35.1953C87.638 35.2214 87.5339 35.2344 87.4297 35.2344C87.2865 35.2344 87.1172 35.2148 86.9219 35.1758C86.7396 35.1497 86.5573 35.1042 86.375 35.0391C86.1927 34.974 86.0234 34.8958 85.8672 34.8047C85.724 34.7005 85.6133 34.5768 85.5352 34.4336C85.457 34.3034 85.3854 34.0625 85.3203 33.7109C85.2682 33.3464 85.2227 32.9297 85.1836 32.4609C85.1445 31.9792 85.112 31.4714 85.0859 30.9375C85.0599 30.3906 85.0339 29.8698 85.0078 29.375C84.9948 28.8802 84.9818 28.4375 84.9688 28.0469C84.9688 27.6432 84.9688 27.3438 84.9688 27.1484C84.9688 26.237 84.9818 25.3581 85.0078 24.5117C85.0469 23.6523 85.0859 22.7734 85.125 21.875C85.0599 21.875 84.9948 21.8815 84.9297 21.8945C84.8646 21.9076 84.7995 21.9141 84.7344 21.9141C84.5651 21.9401 84.3893 21.9596 84.207 21.9727C84.0378 21.9857 83.862 21.9922 83.6797 21.9922C83.4583 21.9922 83.263 21.9531 83.0938 21.875C82.9245 21.7969 82.8398 21.6211 82.8398 21.3477C82.8398 21.0221 82.9115 20.7617 83.0547 20.5664C83.1979 20.3711 83.3802 20.2214 83.6016 20.1172C83.8229 20 84.0638 19.9219 84.3242 19.8828C84.5846 19.8307 84.8385 19.7917 85.0859 19.7656C85.125 19.7656 85.151 19.7656 85.1641 19.7656C85.1771 19.7526 85.2031 19.7461 85.2422 19.7461C85.2552 19.5898 85.2682 19.401 85.2812 19.1797C85.2943 18.9453 85.3073 18.6914 85.3203 18.418C85.3333 17.9883 85.3529 17.5326 85.3789 17.0508C85.4049 16.556 85.431 16.0872 85.457 15.6445C85.4831 15.1888 85.5156 14.7917 85.5547 14.4531C85.5938 14.1016 85.6328 13.8542 85.6719 13.7109C85.737 13.5417 85.8086 13.4049 85.8867 13.3008C85.9779 13.1966 86.1406 13.1445 86.375 13.1445C86.8958 13.1445 87.2995 13.3138 87.5859 13.6523C87.8724 13.9909 88.0156 14.4076 88.0156 14.9023C88.0156 15.4753 87.9961 16.0482 87.957 16.6211C87.931 17.194 87.9049 17.7734 87.8789 18.3594L87.8203 19.3555C88.1458 19.3164 88.4714 19.2578 88.7969 19.1797C89.1094 19.1146 89.4219 19.056 89.7344 19.0039C90.0599 18.9518 90.3724 18.9258 90.6719 18.9258C90.9323 18.9258 91.1341 18.9974 91.2773 19.1406C91.4206 19.2708 91.4922 19.4661 91.4922 19.7266C91.4922 20.013 91.4401 20.293 91.3359 20.5664C91.2318 20.8398 91.0495 21.0482 90.7891 21.1914H90.8086C90.7565 21.2174 90.6003 21.2565 90.3398 21.3086C90.0794 21.3477 89.7799 21.3867 89.4414 21.4258C89.1159 21.4648 88.7904 21.5039 88.4648 21.543C88.1523 21.582 87.918 21.6081 87.7617 21.6211H87.7422C87.7161 22.3503 87.6966 23.0729 87.6836 23.7891C87.6706 24.4922 87.6641 25.2083 87.6641 25.9375C87.6641 26.9401 87.6901 28.0078 87.7422 29.1406C87.8073 30.2604 87.9115 31.3281 88.0547 32.3438L88.2109 33.2227C88.263 33.444 88.3086 33.6654 88.3477 33.8867C88.3867 34.0951 88.4062 34.3034 88.4062 34.5117ZM98.5039 20.6836C98.5039 20.8398 98.4453 20.9701 98.3281 21.0742C98.224 21.1784 98.0938 21.2695 97.9375 21.3477C97.7812 21.4128 97.6185 21.4583 97.4492 21.4844C97.293 21.5104 97.1628 21.5234 97.0586 21.5234C96.9023 21.5234 96.7526 21.5104 96.6094 21.4844C96.4661 21.4453 96.3229 21.4062 96.1797 21.3672C96.0365 21.3281 95.8997 21.2956 95.7695 21.2695C95.6393 21.2305 95.5026 21.2109 95.3594 21.2109C95.1641 21.2109 94.9688 21.2435 94.7734 21.3086C94.5781 21.3737 94.4023 21.4648 94.2461 21.582C94.0898 21.6992 93.9596 21.8424 93.8555 22.0117C93.7643 22.181 93.7188 22.3698 93.7188 22.5781C93.7188 22.8906 93.7839 23.2031 93.9141 23.5156C94.0443 23.8151 94.2135 24.1211 94.4219 24.4336C94.6432 24.7461 94.8906 25.0651 95.1641 25.3906C95.4505 25.7031 95.75 26.0221 96.0625 26.3477C96.4401 26.7643 96.8177 27.1875 97.1953 27.6172C97.5859 28.0469 97.931 28.4961 98.2305 28.9648C98.543 29.4336 98.7969 29.9284 98.9922 30.4492C99.1875 30.9701 99.2852 31.5169 99.2852 32.0898C99.2852 32.5846 99.2005 33.0273 99.0312 33.418C98.875 33.8086 98.6471 34.1406 98.3477 34.4141C98.0612 34.6875 97.7096 34.8958 97.293 35.0391C96.8893 35.1953 96.4466 35.2734 95.9648 35.2734C95.8346 35.2734 95.6328 35.2474 95.3594 35.1953C95.099 35.1432 94.7995 35.0716 94.4609 34.9805C94.1224 34.8763 93.7708 34.7656 93.4062 34.6484C93.0547 34.5312 92.7292 34.4076 92.4297 34.2773C92.1432 34.1341 91.9023 33.9974 91.707 33.8672C91.5247 33.724 91.4336 33.5938 91.4336 33.4766C91.4336 33.3203 91.5052 33.1641 91.6484 33.0078C91.7917 32.8385 91.9609 32.6888 92.1562 32.5586C92.3516 32.4154 92.5534 32.2982 92.7617 32.207C92.9831 32.1159 93.1654 32.0703 93.3086 32.0703C93.5039 32.0703 93.7057 32.1159 93.9141 32.207C94.1354 32.2982 94.3568 32.4023 94.5781 32.5195C94.8255 32.6497 95.0729 32.7669 95.3203 32.8711C95.5807 32.9753 95.8477 33.0273 96.1211 33.0273C96.3294 33.0273 96.4466 32.9557 96.4727 32.8125C96.5117 32.6693 96.5312 32.5065 96.5312 32.3242C96.5312 31.8685 96.4531 31.4388 96.2969 31.0352C96.1406 30.6185 95.9388 30.2148 95.6914 29.8242C95.444 29.4336 95.1576 29.056 94.832 28.6914C94.5065 28.3138 94.181 27.9427 93.8555 27.5781C93.5169 27.2135 93.1849 26.849 92.8594 26.4844C92.5469 26.1198 92.2669 25.7487 92.0195 25.3711C91.7721 24.9805 91.5703 24.5833 91.4141 24.1797C91.2708 23.776 91.1992 23.3464 91.1992 22.8906C91.1992 22.3307 91.3229 21.8294 91.5703 21.3867C91.8177 20.931 92.1367 20.5404 92.5273 20.2148C92.931 19.8893 93.3802 19.6419 93.875 19.4727C94.3828 19.2904 94.8906 19.1992 95.3984 19.1992C95.5677 19.1992 95.8281 19.2383 96.1797 19.3164C96.5312 19.3815 96.8763 19.4792 97.2148 19.6094C97.5534 19.7396 97.8529 19.8958 98.1133 20.0781C98.3737 20.2604 98.5039 20.4622 98.5039 20.6836ZM109.559 33.9453C109.559 34.2057 109.474 34.3945 109.305 34.5117C109.135 34.6289 108.927 34.6875 108.68 34.6875C108.523 34.6875 108.361 34.6745 108.191 34.6484C108.022 34.6094 107.859 34.5703 107.703 34.5312C107.43 34.4531 107.215 34.3555 107.059 34.2383C106.915 34.1211 106.805 33.9909 106.727 33.8477C106.648 33.6914 106.596 33.5221 106.57 33.3398C106.557 33.1576 106.544 32.9557 106.531 32.7344C106.531 32.6693 106.525 32.6107 106.512 32.5586C106.512 32.5065 106.512 32.4544 106.512 32.4023C106.473 31.6602 106.434 30.8984 106.395 30.1172C106.368 29.3359 106.355 28.5742 106.355 27.832C106.355 27.4544 106.355 27.0768 106.355 26.6992C106.368 26.3216 106.382 25.944 106.395 25.5664C106.408 25.1888 106.414 24.8177 106.414 24.4531C106.427 24.0755 106.434 23.6979 106.434 23.3203C106.434 23.2422 106.427 23.1706 106.414 23.1055C106.414 23.0273 106.408 22.9492 106.395 22.8711C106.056 23.3659 105.757 23.9193 105.496 24.5312C105.249 25.1302 105.027 25.7552 104.832 26.4062C104.637 27.0443 104.467 27.6888 104.324 28.3398C104.194 28.9779 104.083 29.5898 103.992 30.1758L103.934 30.5859C103.868 31.0417 103.803 31.5104 103.738 31.9922C103.673 32.4609 103.641 32.9297 103.641 33.3984C103.641 33.5938 103.673 33.8086 103.738 34.043C103.764 34.1471 103.784 34.2513 103.797 34.3555C103.823 34.4466 103.836 34.5638 103.836 34.707C103.836 35.0195 103.758 35.2279 103.602 35.332C103.445 35.4492 103.237 35.5078 102.977 35.5078C102.82 35.5078 102.645 35.4948 102.449 35.4688C102.267 35.4427 102.085 35.3971 101.902 35.332C101.733 35.2799 101.57 35.2083 101.414 35.1172C101.258 35.026 101.134 34.9089 101.043 34.7656C100.965 34.5964 100.887 34.1471 100.809 33.418C100.743 32.6888 100.678 31.7839 100.613 30.7031C100.561 29.6224 100.509 28.4115 100.457 27.0703C100.405 25.7161 100.353 24.3294 100.301 22.9102C100.262 21.4909 100.223 20.0846 100.184 18.6914C100.158 17.2982 100.132 16.0156 100.105 14.8438C100.092 13.6719 100.079 12.6562 100.066 11.7969C100.053 10.9245 100.047 10.3125 100.047 9.96094C100.047 9.70052 100.079 9.46615 100.145 9.25781C100.223 9.03646 100.431 8.92578 100.77 8.92578C101.121 8.92578 101.453 9.01042 101.766 9.17969C102.078 9.33594 102.306 9.58333 102.449 9.92188C102.475 9.97396 102.501 10.1888 102.527 10.5664C102.553 10.931 102.579 11.4062 102.605 11.9922C102.632 12.5651 102.658 13.2292 102.684 13.9844C102.71 14.7266 102.736 15.5013 102.762 16.3086C102.788 17.1029 102.814 17.9036 102.84 18.7109C102.866 19.5182 102.892 20.2734 102.918 20.9766L103.016 23.8672C103.172 23.4635 103.367 23.0404 103.602 22.5977C103.836 22.1549 104.103 21.7513 104.402 21.3867C104.715 21.0221 105.06 20.7227 105.438 20.4883C105.828 20.2539 106.258 20.1367 106.727 20.1367C107.299 20.1367 107.749 20.2865 108.074 20.5859C108.4 20.8854 108.641 21.2565 108.797 21.6992C108.966 22.1419 109.07 22.6172 109.109 23.125C109.148 23.6328 109.168 24.0951 109.168 24.5117C109.168 24.7721 109.161 25.026 109.148 25.2734C109.148 25.5208 109.142 25.7682 109.129 26.0156C109.116 26.276 109.103 26.5365 109.09 26.7969C109.09 27.0443 109.09 27.2982 109.09 27.5586C109.09 28.457 109.109 29.3815 109.148 30.332C109.188 31.2695 109.285 32.194 109.441 33.1055L109.48 33.3789C109.507 33.457 109.526 33.5482 109.539 33.6523C109.552 33.7565 109.559 33.8542 109.559 33.9453ZM118.797 31.4258C118.797 31.8164 118.686 32.2201 118.465 32.6367C118.257 33.0534 117.983 33.4375 117.645 33.7891C117.306 34.1276 116.915 34.4076 116.473 34.6289C116.043 34.8503 115.613 34.9609 115.184 34.9609C114.572 34.9609 114.044 34.8438 113.602 34.6094C113.159 34.362 112.775 34.0365 112.449 33.6328C112.124 33.2161 111.857 32.7474 111.648 32.2266C111.453 31.7057 111.297 31.1719 111.18 30.625C111.062 30.0651 110.978 29.5117 110.926 28.9648C110.887 28.4049 110.867 27.8971 110.867 27.4414C110.867 27.0508 110.887 26.5885 110.926 26.0547C110.978 25.5208 111.056 24.9674 111.16 24.3945C111.277 23.8216 111.434 23.2552 111.629 22.6953C111.824 22.1354 112.065 21.6341 112.352 21.1914C112.651 20.7487 113.003 20.3906 113.406 20.1172C113.823 19.8438 114.298 19.707 114.832 19.707C115.249 19.707 115.62 19.7917 115.945 19.9609C116.284 20.1302 116.564 20.3581 116.785 20.6445C117.02 20.918 117.195 21.237 117.312 21.6016C117.443 21.9661 117.508 22.3438 117.508 22.7344C117.508 23.2422 117.391 23.7956 117.156 24.3945C116.922 24.9935 116.616 25.5729 116.238 26.1328C115.874 26.6927 115.457 27.2005 114.988 27.6562C114.533 28.099 114.077 28.4375 113.621 28.6719C113.647 28.9062 113.699 29.2513 113.777 29.707C113.855 30.1497 113.96 30.5924 114.09 31.0352C114.233 31.4779 114.396 31.862 114.578 32.1875C114.773 32.513 115.001 32.6758 115.262 32.6758C115.392 32.6758 115.503 32.6367 115.594 32.5586C115.698 32.4805 115.789 32.3763 115.867 32.2461C115.945 32.1159 116.01 31.9727 116.062 31.8164C116.128 31.6602 116.186 31.5104 116.238 31.3672L116.355 31.0938C116.382 31.0547 116.395 31.0286 116.395 31.0156C116.408 31.0026 116.421 30.9831 116.434 30.957C116.525 30.7878 116.609 30.6315 116.688 30.4883C116.779 30.3451 116.902 30.2214 117.059 30.1172H117.039C117.091 30.0651 117.143 30.0391 117.195 30.0391C117.26 30.026 117.319 30.0195 117.371 30.0195C117.514 30.0195 117.671 30.0651 117.84 30.1562C118.009 30.2474 118.165 30.3646 118.309 30.5078C118.452 30.638 118.569 30.7878 118.66 30.957C118.751 31.1133 118.797 31.2695 118.797 31.4258ZM114.93 22.8125C114.93 22.6823 114.923 22.5456 114.91 22.4023C114.897 22.2591 114.865 22.1354 114.812 22.0312C114.63 22.2526 114.467 22.5195 114.324 22.832C114.194 23.1315 114.083 23.4505 113.992 23.7891C113.901 24.1146 113.823 24.4466 113.758 24.7852C113.706 25.1237 113.667 25.4362 113.641 25.7227C113.979 25.319 114.279 24.8633 114.539 24.3555C114.799 23.8346 114.93 23.3203 114.93 22.8125ZM124.676 35.5664C124.676 35.7487 124.63 35.8984 124.539 36.0156C124.448 36.1328 124.331 36.224 124.188 36.2891C124.057 36.3672 123.908 36.4193 123.738 36.4453C123.582 36.4844 123.439 36.5039 123.309 36.5039C122.853 36.5039 122.456 36.3737 122.117 36.1133C121.779 35.8529 121.486 35.5143 121.238 35.0977C120.991 34.694 120.789 34.2318 120.633 33.7109C120.477 33.1771 120.346 32.6497 120.242 32.1289C120.138 31.5951 120.06 31.0872 120.008 30.6055C119.956 30.1107 119.917 29.6875 119.891 29.3359C119.773 28.125 119.689 26.8945 119.637 25.6445C119.598 24.3945 119.578 23.1576 119.578 21.9336C119.578 18.5872 119.695 15.2734 119.93 11.9922C119.93 11.9401 119.93 11.8815 119.93 11.8164C119.943 11.7513 119.949 11.6862 119.949 11.6211C119.962 11.3477 119.975 11.0352 119.988 10.6836C120.001 10.319 120.021 9.96094 120.047 9.60938C120.073 9.25781 120.099 8.9388 120.125 8.65234C120.164 8.35286 120.21 8.14453 120.262 8.02734V8.04688C120.314 7.86458 120.385 7.72786 120.477 7.63672C120.568 7.54557 120.724 7.5 120.945 7.5C121.414 7.5 121.811 7.65625 122.137 7.96875C122.462 8.28125 122.625 8.67188 122.625 9.14062C122.625 9.24479 122.618 9.34896 122.605 9.45312C122.605 9.54427 122.599 9.63542 122.586 9.72656C122.573 9.81771 122.56 9.90885 122.547 10C122.547 10.0781 122.547 10.1497 122.547 10.2148C122.508 10.7227 122.475 11.2305 122.449 11.7383C122.436 12.2331 122.417 12.7344 122.391 13.2422C122.326 14.362 122.273 15.4818 122.234 16.6016C122.208 17.7083 122.195 18.8281 122.195 19.9609C122.195 20.4427 122.202 21.0742 122.215 21.8555C122.228 22.6367 122.254 23.4896 122.293 24.4141C122.332 25.3255 122.384 26.2695 122.449 27.2461C122.527 28.2227 122.625 29.1536 122.742 30.0391C122.859 30.9245 122.996 31.7253 123.152 32.4414C123.322 33.1576 123.517 33.7109 123.738 34.1016C123.855 34.1536 123.966 34.2383 124.07 34.3555C124.188 34.4596 124.285 34.5833 124.363 34.7266C124.454 34.8568 124.526 34.9935 124.578 35.1367C124.643 35.293 124.676 35.4362 124.676 35.5664ZM130.184 35.5664C130.184 35.7487 130.138 35.8984 130.047 36.0156C129.956 36.1328 129.839 36.224 129.695 36.2891C129.565 36.3672 129.415 36.4193 129.246 36.4453C129.09 36.4844 128.947 36.5039 128.816 36.5039C128.361 36.5039 127.964 36.3737 127.625 36.1133C127.286 35.8529 126.993 35.5143 126.746 35.0977C126.499 34.694 126.297 34.2318 126.141 33.7109C125.984 33.1771 125.854 32.6497 125.75 32.1289C125.646 31.5951 125.568 31.0872 125.516 30.6055C125.464 30.1107 125.424 29.6875 125.398 29.3359C125.281 28.125 125.197 26.8945 125.145 25.6445C125.105 24.3945 125.086 23.1576 125.086 21.9336C125.086 18.5872 125.203 15.2734 125.438 11.9922C125.438 11.9401 125.438 11.8815 125.438 11.8164C125.451 11.7513 125.457 11.6862 125.457 11.6211C125.47 11.3477 125.483 11.0352 125.496 10.6836C125.509 10.319 125.529 9.96094 125.555 9.60938C125.581 9.25781 125.607 8.9388 125.633 8.65234C125.672 8.35286 125.717 8.14453 125.77 8.02734V8.04688C125.822 7.86458 125.893 7.72786 125.984 7.63672C126.076 7.54557 126.232 7.5 126.453 7.5C126.922 7.5 127.319 7.65625 127.645 7.96875C127.97 8.28125 128.133 8.67188 128.133 9.14062C128.133 9.24479 128.126 9.34896 128.113 9.45312C128.113 9.54427 128.107 9.63542 128.094 9.72656C128.081 9.81771 128.068 9.90885 128.055 10C128.055 10.0781 128.055 10.1497 128.055 10.2148C128.016 10.7227 127.983 11.2305 127.957 11.7383C127.944 12.2331 127.924 12.7344 127.898 13.2422C127.833 14.362 127.781 15.4818 127.742 16.6016C127.716 17.7083 127.703 18.8281 127.703 19.9609C127.703 20.4427 127.71 21.0742 127.723 21.8555C127.736 22.6367 127.762 23.4896 127.801 24.4141C127.84 25.3255 127.892 26.2695 127.957 27.2461C128.035 28.2227 128.133 29.1536 128.25 30.0391C128.367 30.9245 128.504 31.7253 128.66 32.4414C128.829 33.1576 129.025 33.7109 129.246 34.1016C129.363 34.1536 129.474 34.2383 129.578 34.3555C129.695 34.4596 129.793 34.5833 129.871 34.7266C129.962 34.8568 130.034 34.9935 130.086 35.1367C130.151 35.293 130.184 35.4362 130.184 35.5664Z" fill="black"/>
<path d="M18.3108 9.07344C18.106 9.19051 17.5596 10.2441 17.5596 10.5271C17.5596 10.6539 17.8523 11.0246 18.3206 11.4831C18.8864 12.049 19.1791 12.4392 19.4913 13.0538C19.9791 14.0099 19.9986 13.9807 18.945 14.4197C14.9158 16.1172 13.267 19.8537 14.3012 24.9658C14.5646 26.2633 13.4817 26.3901 23.7644 23.8536C30.9642 22.078 32.7593 21.6 32.8959 21.4341C33.1007 21.2098 33.0812 21.122 32.6227 19.7269C31.6861 16.8489 30.1154 14.927 27.8813 13.9026C26.7301 13.3758 25.9204 13.2197 24.2326 13.2294L22.7595 13.2392L22.5156 12.7417C21.9303 11.5514 20.8474 10.4295 19.3254 9.43441C18.5352 8.91735 18.5645 8.9271 18.3108 9.07344ZM27.0033 16.0391C27.5496 16.4977 27.4326 17.3367 26.7789 17.6098C26.3399 17.7854 26.018 17.7074 25.7058 17.3367C25.3058 16.8586 25.4033 16.2343 25.9302 15.9513C26.3204 15.7367 26.6814 15.766 27.0033 16.0391ZM23.9692 16.9172C24.5839 17.6196 23.8522 18.722 22.9644 18.4293C22.4961 18.2732 22.2912 17.922 22.3302 17.3269C22.3302 17.2294 22.4766 17.0147 22.6327 16.8489C22.9058 16.5855 22.9839 16.5562 23.3449 16.605C23.618 16.644 23.8229 16.7416 23.9692 16.9172ZM29.374 18.6147C29.7447 18.9854 29.7545 19.4635 29.413 19.8732C29.1106 20.2439 28.7789 20.322 28.3496 20.1464C27.7057 19.8732 27.5692 19.0732 28.0862 18.6049C28.5057 18.2245 28.9838 18.2342 29.374 18.6147ZM26.0375 19.2586C26.6131 19.5513 26.6619 20.4 26.1253 20.8C25.3643 21.3659 24.3204 20.5659 24.6814 19.6976C24.896 19.1708 25.5009 18.9757 26.0375 19.2586ZM23.0327 20.1756C23.5497 20.7025 23.3741 21.5219 22.6815 21.7463C21.7546 22.0488 21.0522 20.8781 21.7449 20.1756C21.9595 19.9708 22.1254 19.8927 22.3888 19.8927C22.6522 19.8927 22.818 19.9708 23.0327 20.1756Z" fill="black"/>
<path d="M17.462 27.7169C16.8474 27.873 16.2913 28.0486 16.223 28.1072C16.0279 28.273 16.0669 28.595 16.4474 29.7169C17.462 32.7705 19.1205 34.946 21.218 35.9899C22.1741 36.4582 22.8961 36.6533 24.0473 36.7606C24.9545 36.8387 25.1204 36.8972 26.2423 37.5606C27.1496 38.0874 27.3252 38.1167 27.696 37.7752C27.8618 37.6289 28.2228 37.1509 28.5057 36.7314C28.9837 36.0094 29.0813 35.9314 29.8227 35.5411C30.8861 34.9948 31.4325 34.5851 32.2617 33.707C32.9446 32.9949 33.8617 31.7364 33.9885 31.3461C34.0178 31.2388 33.9885 31.0827 33.93 30.9949C33.7251 30.7315 31.8227 29.912 31.5788 29.9803C31.452 30.0193 31.1788 30.3315 30.9251 30.7315C30.291 31.7266 29.3154 32.6144 28.3496 33.0729C27.1301 33.6583 26.4862 33.7948 25.0228 33.7948C23.5204 33.7948 22.9643 33.629 21.94 32.8778C20.8083 32.0485 19.9888 30.7315 19.3156 28.6828C19.0522 27.8925 18.8961 27.5413 18.7693 27.5023C18.662 27.4633 18.0767 27.5608 17.462 27.7169Z" fill="black"/>
</svg>
