<svg width="232" height="16" viewBox="0 0 232 16" fill="none" xmlns="http://www.w3.org/2000/svg">
<path d="M0.646447 7.64645C0.451184 7.84171 0.451184 8.15829 0.646447 8.35355L3.82843 11.5355C4.02369 11.7308 4.34027 11.7308 4.53553 11.5355C4.7308 11.3403 4.7308 11.0237 4.53553 10.8284L1.70711 8L4.53553 5.17157C4.7308 4.97631 4.7308 4.65973 4.53553 4.46447C4.34027 4.2692 4.02369 4.2692 3.82843 4.46447L0.646447 7.64645ZM34 7.5L1 7.5V8.5L34 8.5V7.5Z" fill="black"/>
<path d="M45.0387 13V3.54545H50.9663V4.77344H46.4652V7.65412H50.657V8.87749H46.4652V11.772H51.0217V13H45.0387ZM58.827 5.90909L56.2556 13H54.7783L52.2023 5.90909H53.6842L55.48 11.3658H55.5539L57.3451 5.90909H58.827ZM62.9391 13.1431C62.2405 13.1431 61.6388 12.9938 61.1341 12.6953C60.6324 12.3937 60.2446 11.9705 59.9707 11.4258C59.6999 10.878 59.5645 10.2363 59.5645 9.50071C59.5645 8.77438 59.6999 8.13423 59.9707 7.58026C60.2446 7.02628 60.6262 6.59387 61.1156 6.28303C61.608 5.97218 62.1835 5.81676 62.8422 5.81676C63.2422 5.81676 63.63 5.88293 64.0055 6.01527C64.381 6.14761 64.718 6.35535 65.0165 6.63849C65.315 6.92164 65.5505 7.28942 65.7228 7.74183C65.8952 8.19117 65.9814 8.73745 65.9814 9.38068V9.87003H60.3446V8.83594H64.6287C64.6287 8.47277 64.5549 8.15116 64.4071 7.87109C64.2594 7.58795 64.0517 7.36482 63.7839 7.2017C63.5192 7.03859 63.2084 6.95703 62.8514 6.95703C62.4636 6.95703 62.1251 7.05244 61.8358 7.24325C61.5495 7.43099 61.3279 7.6772 61.171 7.98189C61.0171 8.2835 60.9402 8.61127 60.9402 8.9652V9.77308C60.9402 10.247 61.0233 10.6502 61.1895 10.9826C61.3587 11.315 61.5942 11.5689 61.8958 11.7443C62.1974 11.9167 62.5498 12.0028 62.9529 12.0028C63.2145 12.0028 63.4531 11.9659 63.6685 11.892C63.8839 11.8151 64.0701 11.7012 64.2271 11.5504C64.3841 11.3996 64.5041 11.2134 64.5872 10.9918L65.8936 11.2273C65.789 11.612 65.6013 11.949 65.3304 12.2383C65.0627 12.5245 64.7257 12.7476 64.3194 12.9077C63.9163 13.0646 63.4561 13.1431 62.9391 13.1431ZM67.5129 13V5.90909H68.847V7.03551H68.9209C69.0502 6.65388 69.2779 6.35381 69.6041 6.1353C69.9334 5.91371 70.3058 5.80291 70.7213 5.80291C70.8075 5.80291 70.9091 5.80599 71.026 5.81214C71.146 5.8183 71.2399 5.82599 71.3076 5.83523V7.15554C71.2522 7.14015 71.1537 7.12322 71.0122 7.10476C70.8706 7.08321 70.729 7.07244 70.5874 7.07244C70.2612 7.07244 69.9704 7.14169 69.7149 7.28018C69.4626 7.4156 69.2625 7.60488 69.1148 7.84801C68.9671 8.08807 68.8932 8.36198 68.8932 8.66974V13H67.5129ZM73.5905 15.6591C73.3843 15.6591 73.1965 15.6422 73.0273 15.6083C72.858 15.5775 72.7318 15.5437 72.6487 15.5067L72.9811 14.3757C73.2335 14.4434 73.4581 14.4727 73.6551 14.4634C73.8521 14.4542 74.026 14.3803 74.1768 14.2418C74.3306 14.1033 74.4661 13.8771 74.583 13.5632L74.7538 13.0923L72.1594 5.90909H73.6366L75.4324 11.4119H75.5063L77.3021 5.90909H78.784L75.8618 13.9464C75.7264 14.3157 75.554 14.6281 75.3447 14.8835C75.1354 15.142 74.8862 15.3359 74.5969 15.4652C74.3076 15.5945 73.9721 15.6591 73.5905 15.6591ZM83.3912 5.90909V7.01705H79.518V5.90909H83.3912ZM80.5567 4.21023H81.9371V10.918C81.9371 11.1857 81.9771 11.3873 82.0571 11.5227C82.1371 11.6551 82.2402 11.7459 82.3664 11.7951C82.4956 11.8413 82.6357 11.8643 82.7865 11.8643C82.8973 11.8643 82.9942 11.8567 83.0773 11.8413C83.1604 11.8259 83.2251 11.8136 83.2712 11.8043L83.5205 12.9446C83.4405 12.9754 83.3266 13.0062 83.1789 13.0369C83.0312 13.0708 82.8465 13.0893 82.6249 13.0923C82.2617 13.0985 81.9232 13.0339 81.6093 12.8984C81.2954 12.763 81.0415 12.5537 80.8476 12.2706C80.6537 11.9875 80.5567 11.632 80.5567 11.2042V4.21023ZM86.4508 8.78977V13H85.0705V3.54545H86.4324V7.06321H86.5201C86.6863 6.68158 86.9402 6.37843 87.2818 6.15376C87.6234 5.9291 88.0697 5.81676 88.6206 5.81676C89.1068 5.81676 89.5315 5.91679 89.8947 6.11683C90.2609 6.31688 90.5441 6.61541 90.7441 7.01243C90.9473 7.40637 91.0488 7.89879 91.0488 8.4897V13H89.6685V8.65589C89.6685 8.13577 89.5346 7.7326 89.2669 7.44638C88.9991 7.15708 88.6267 7.01243 88.1497 7.01243C87.8234 7.01243 87.5311 7.08168 87.2725 7.22017C87.0171 7.35866 86.8155 7.56179 86.6678 7.82955C86.5231 8.09422 86.4508 8.4143 86.4508 8.78977ZM92.8908 13V5.90909H94.2711V13H92.8908ZM93.5879 4.81499C93.3478 4.81499 93.1416 4.73497 92.9693 4.57493C92.8 4.41181 92.7154 4.21792 92.7154 3.99325C92.7154 3.76551 92.8 3.57161 92.9693 3.41158C93.1416 3.24846 93.3478 3.1669 93.5879 3.1669C93.8279 3.1669 94.0326 3.24846 94.2019 3.41158C94.3742 3.57161 94.4604 3.76551 94.4604 3.99325C94.4604 4.21792 94.3742 4.41181 94.2019 4.57493C94.0326 4.73497 93.8279 4.81499 93.5879 4.81499ZM97.5084 8.78977V13H96.1281V5.90909H97.453V7.06321H97.5407C97.7039 6.68774 97.9593 6.38613 98.3071 6.15838C98.6579 5.93063 99.0996 5.81676 99.632 5.81676C100.115 5.81676 100.538 5.91832 100.902 6.12145C101.265 6.3215 101.546 6.62003 101.746 7.01705C101.946 7.41406 102.046 7.90495 102.046 8.4897V13H100.666V8.65589C100.666 8.14193 100.532 7.74029 100.264 7.45099C99.9967 7.15862 99.6289 7.01243 99.1611 7.01243C98.8411 7.01243 98.5564 7.08168 98.3071 7.22017C98.0609 7.35866 97.8654 7.56179 97.7208 7.82955C97.5792 8.09422 97.5084 8.4143 97.5084 8.78977ZM106.871 15.8068C106.307 15.8068 105.823 15.733 105.416 15.5852C105.013 15.4375 104.684 15.2421 104.429 14.9989C104.173 14.7558 103.982 14.4896 103.856 14.2003L105.043 13.7109C105.126 13.8464 105.236 13.9895 105.375 14.1403C105.516 14.2942 105.707 14.425 105.947 14.5327C106.19 14.6404 106.503 14.6942 106.884 14.6942C107.408 14.6942 107.84 14.5665 108.182 14.3111C108.523 14.0587 108.694 13.6555 108.694 13.1016V11.7074H108.606C108.523 11.8582 108.403 12.0259 108.246 12.2106C108.092 12.3952 107.88 12.5553 107.609 12.6907C107.338 12.8261 106.986 12.8938 106.552 12.8938C105.992 12.8938 105.487 12.763 105.038 12.5014C104.592 12.2367 104.238 11.8474 103.976 11.3335C103.718 10.8164 103.588 10.1809 103.588 9.42685C103.588 8.67282 103.716 8.02651 103.972 7.48793C104.23 6.94934 104.584 6.53693 105.033 6.25071C105.483 5.96141 105.992 5.81676 106.561 5.81676C107.001 5.81676 107.357 5.89062 107.628 6.03835C107.899 6.183 108.109 6.35227 108.26 6.54616C108.414 6.74006 108.533 6.91087 108.616 7.05859H108.717V5.90909H110.07V13.157C110.07 13.7663 109.928 14.2665 109.645 14.6573C109.362 15.0482 108.979 15.3375 108.496 15.5252C108.016 15.7129 107.474 15.8068 106.871 15.8068ZM106.857 11.7489C107.254 11.7489 107.589 11.6566 107.863 11.4719C108.14 11.2842 108.349 11.0165 108.491 10.6687C108.636 10.3178 108.708 9.89773 108.708 9.40838C108.708 8.93134 108.637 8.51125 108.496 8.14808C108.354 7.78492 108.146 7.50178 107.872 7.29865C107.599 7.09245 107.26 6.98935 106.857 6.98935C106.441 6.98935 106.095 7.09706 105.818 7.3125C105.541 7.52486 105.332 7.81416 105.19 8.1804C105.052 8.54664 104.983 8.95597 104.983 9.40838C104.983 9.87311 105.053 10.2809 105.195 10.6317C105.336 10.9826 105.546 11.2565 105.823 11.4535C106.103 11.6504 106.447 11.7489 106.857 11.7489ZM114.743 3.54545H116.363L118.833 7.84339H118.935L121.404 3.54545H123.025L119.595 9.28835V13H118.173V9.28835L114.743 3.54545ZM126.08 13.1431C125.415 13.1431 124.835 12.9908 124.339 12.6861C123.844 12.3814 123.459 11.9551 123.185 11.4073C122.911 10.8595 122.774 10.2193 122.774 9.48686C122.774 8.7513 122.911 8.10807 123.185 7.55717C123.459 7.00627 123.844 6.57848 124.339 6.27379C124.835 5.96911 125.415 5.81676 126.08 5.81676C126.745 5.81676 127.325 5.96911 127.82 6.27379C128.316 6.57848 128.7 7.00627 128.974 7.55717C129.248 8.10807 129.385 8.7513 129.385 9.48686C129.385 10.2193 129.248 10.8595 128.974 11.4073C128.7 11.9551 128.316 12.3814 127.82 12.6861C127.325 12.9908 126.745 13.1431 126.08 13.1431ZM126.084 11.9844C126.515 11.9844 126.872 11.8705 127.155 11.6428C127.439 11.415 127.648 11.1119 127.783 10.7333C127.922 10.3548 127.991 9.93774 127.991 9.48224C127.991 9.02983 127.922 8.61435 127.783 8.2358C127.648 7.85417 127.439 7.54794 127.155 7.31712C126.872 7.08629 126.515 6.97088 126.084 6.97088C125.65 6.97088 125.29 7.08629 125.004 7.31712C124.721 7.54794 124.51 7.85417 124.372 8.2358C124.236 8.61435 124.169 9.02983 124.169 9.48224C124.169 9.93774 124.236 10.3548 124.372 10.7333C124.51 11.1119 124.721 11.415 125.004 11.6428C125.29 11.8705 125.65 11.9844 126.084 11.9844ZM135.418 10.0593V5.90909H136.803V13H135.445V11.772H135.372C135.209 12.1506 134.947 12.466 134.587 12.7184C134.23 12.9677 133.785 13.0923 133.253 13.0923C132.797 13.0923 132.394 12.9923 132.043 12.7923C131.695 12.5891 131.421 12.2891 131.221 11.892C131.024 11.495 130.926 11.0041 130.926 10.4194V5.90909H132.306V10.2532C132.306 10.7364 132.44 11.1211 132.708 11.4073C132.976 11.6935 133.323 11.8366 133.751 11.8366C134.01 11.8366 134.267 11.772 134.522 11.6428C134.781 11.5135 134.995 11.3181 135.164 11.0565C135.336 10.7949 135.421 10.4625 135.418 10.0593ZM149.84 3.54545V13H148.529L143.723 6.06605H143.635V13H142.209V3.54545H143.529L148.339 10.4886H148.427V3.54545H149.84ZM154.866 13.1431C154.167 13.1431 153.566 12.9938 153.061 12.6953C152.559 12.3937 152.171 11.9705 151.897 11.4258C151.627 10.878 151.491 10.2363 151.491 9.50071C151.491 8.77438 151.627 8.13423 151.897 7.58026C152.171 7.02628 152.553 6.59387 153.042 6.28303C153.535 5.97218 154.11 5.81676 154.769 5.81676C155.169 5.81676 155.557 5.88293 155.932 6.01527C156.308 6.14761 156.645 6.35535 156.943 6.63849C157.242 6.92164 157.477 7.28942 157.65 7.74183C157.822 8.19117 157.908 8.73745 157.908 9.38068V9.87003H152.271V8.83594H156.555C156.555 8.47277 156.482 8.15116 156.334 7.87109C156.186 7.58795 155.978 7.36482 155.711 7.2017C155.446 7.03859 155.135 6.95703 154.778 6.95703C154.39 6.95703 154.052 7.05244 153.763 7.24325C153.476 7.43099 153.255 7.6772 153.098 7.98189C152.944 8.2835 152.867 8.61127 152.867 8.9652V9.77308C152.867 10.247 152.95 10.6502 153.116 10.9826C153.285 11.315 153.521 11.5689 153.823 11.7443C154.124 11.9167 154.477 12.0028 154.88 12.0028C155.141 12.0028 155.38 11.9659 155.595 11.892C155.811 11.8151 155.997 11.7012 156.154 11.5504C156.311 11.3996 156.431 11.2134 156.514 10.9918L157.82 11.2273C157.716 11.612 157.528 11.949 157.257 12.2383C156.989 12.5245 156.652 12.7476 156.246 12.9077C155.843 13.0646 155.383 13.1431 154.866 13.1431ZM162.496 13.1431C161.797 13.1431 161.195 12.9938 160.691 12.6953C160.189 12.3937 159.801 11.9705 159.527 11.4258C159.257 10.878 159.121 10.2363 159.121 9.50071C159.121 8.77438 159.257 8.13423 159.527 7.58026C159.801 7.02628 160.183 6.59387 160.672 6.28303C161.165 5.97218 161.74 5.81676 162.399 5.81676C162.799 5.81676 163.187 5.88293 163.562 6.01527C163.938 6.14761 164.275 6.35535 164.573 6.63849C164.872 6.92164 165.107 7.28942 165.279 7.74183C165.452 8.19117 165.538 8.73745 165.538 9.38068V9.87003H159.901V8.83594H164.185C164.185 8.47277 164.112 8.15116 163.964 7.87109C163.816 7.58795 163.608 7.36482 163.341 7.2017C163.076 7.03859 162.765 6.95703 162.408 6.95703C162.02 6.95703 161.682 7.05244 161.392 7.24325C161.106 7.43099 160.885 7.6772 160.728 7.98189C160.574 8.2835 160.497 8.61127 160.497 8.9652V9.77308C160.497 10.247 160.58 10.6502 160.746 10.9826C160.915 11.315 161.151 11.5689 161.452 11.7443C161.754 11.9167 162.106 12.0028 162.51 12.0028C162.771 12.0028 163.01 11.9659 163.225 11.892C163.441 11.8151 163.627 11.7012 163.784 11.5504C163.941 11.3996 164.061 11.2134 164.144 10.9918L165.45 11.2273C165.346 11.612 165.158 11.949 164.887 12.2383C164.619 12.5245 164.282 12.7476 163.876 12.9077C163.473 13.0646 163.013 13.1431 162.496 13.1431ZM169.724 13.1385C169.152 13.1385 168.641 12.9923 168.191 12.6999C167.745 12.4045 167.394 11.9844 167.139 11.4396C166.886 10.8918 166.76 10.2347 166.76 9.46839C166.76 8.70206 166.888 8.04652 167.143 7.50178C167.402 6.95703 167.756 6.54001 168.205 6.25071C168.655 5.96141 169.164 5.81676 169.733 5.81676C170.173 5.81676 170.527 5.89062 170.795 6.03835C171.066 6.183 171.275 6.35227 171.423 6.54616C171.574 6.74006 171.691 6.91087 171.774 7.05859H171.857V3.54545H173.237V13H171.889V11.8967H171.774C171.691 12.0475 171.571 12.2198 171.414 12.4137C171.26 12.6076 171.047 12.7769 170.777 12.9215C170.506 13.0662 170.155 13.1385 169.724 13.1385ZM170.029 11.9613C170.426 11.9613 170.761 11.8567 171.035 11.6474C171.312 11.435 171.521 11.1411 171.663 10.7656C171.808 10.3902 171.88 9.95312 171.88 9.45455C171.88 8.96212 171.809 8.53125 171.668 8.16193C171.526 7.79261 171.318 7.50485 171.044 7.29865C170.77 7.09245 170.432 6.98935 170.029 6.98935C169.613 6.98935 169.267 7.09706 168.99 7.3125C168.713 7.52794 168.504 7.82185 168.362 8.19425C168.224 8.56664 168.154 8.98674 168.154 9.45455C168.154 9.9285 168.225 10.3548 168.367 10.7333C168.508 11.1119 168.718 11.4119 168.995 11.6335C169.275 11.852 169.619 11.9613 170.029 11.9613ZM178.292 4.77344V3.54545H185.609V4.77344H182.659V13H181.237V4.77344H178.292ZM189.074 13.1431C188.409 13.1431 187.829 12.9908 187.334 12.6861C186.838 12.3814 186.453 11.9551 186.179 11.4073C185.906 10.8595 185.769 10.2193 185.769 9.48686C185.769 8.7513 185.906 8.10807 186.179 7.55717C186.453 7.00627 186.838 6.57848 187.334 6.27379C187.829 5.96911 188.409 5.81676 189.074 5.81676C189.739 5.81676 190.319 5.96911 190.814 6.27379C191.31 6.57848 191.695 7.00627 191.968 7.55717C192.242 8.10807 192.379 8.7513 192.379 9.48686C192.379 10.2193 192.242 10.8595 191.968 11.4073C191.695 11.9551 191.31 12.3814 190.814 12.6861C190.319 12.9908 189.739 13.1431 189.074 13.1431ZM189.079 11.9844C189.509 11.9844 189.866 11.8705 190.15 11.6428C190.433 11.415 190.642 11.1119 190.777 10.7333C190.916 10.3548 190.985 9.93774 190.985 9.48224C190.985 9.02983 190.916 8.61435 190.777 8.2358C190.642 7.85417 190.433 7.54794 190.15 7.31712C189.866 7.08629 189.509 6.97088 189.079 6.97088C188.645 6.97088 188.285 7.08629 187.998 7.31712C187.715 7.54794 187.504 7.85417 187.366 8.2358C187.23 8.61435 187.163 9.02983 187.163 9.48224C187.163 9.93774 187.23 10.3548 187.366 10.7333C187.504 11.1119 187.715 11.415 187.998 11.6428C188.285 11.8705 188.645 11.9844 189.079 11.9844ZM197.471 13V3.54545H198.898V8.06037H199.013L202.979 3.54545H204.775L200.961 7.80185L204.788 13H203.071L200.015 8.77592L198.898 10.0593V13H197.471ZM207.374 8.78977V13H205.993V5.90909H207.318V7.06321H207.406C207.569 6.68774 207.825 6.38613 208.172 6.15838C208.523 5.93063 208.965 5.81676 209.497 5.81676C209.98 5.81676 210.404 5.91832 210.767 6.12145C211.13 6.3215 211.412 6.62003 211.612 7.01705C211.812 7.41406 211.912 7.90495 211.912 8.4897V13H210.531V8.65589C210.531 8.14193 210.397 7.74029 210.13 7.45099C209.862 7.15862 209.494 7.01243 209.026 7.01243C208.706 7.01243 208.422 7.08168 208.172 7.22017C207.926 7.35866 207.731 7.56179 207.586 7.82955C207.444 8.09422 207.374 8.4143 207.374 8.78977ZM216.75 13.1431C216.085 13.1431 215.505 12.9908 215.009 12.6861C214.514 12.3814 214.129 11.9551 213.855 11.4073C213.581 10.8595 213.444 10.2193 213.444 9.48686C213.444 8.7513 213.581 8.10807 213.855 7.55717C214.129 7.00627 214.514 6.57848 215.009 6.27379C215.505 5.96911 216.085 5.81676 216.75 5.81676C217.415 5.81676 217.995 5.96911 218.49 6.27379C218.986 6.57848 219.37 7.00627 219.644 7.55717C219.918 8.10807 220.055 8.7513 220.055 9.48686C220.055 10.2193 219.918 10.8595 219.644 11.4073C219.37 11.9551 218.986 12.3814 218.49 12.6861C217.995 12.9908 217.415 13.1431 216.75 13.1431ZM216.754 11.9844C217.185 11.9844 217.542 11.8705 217.825 11.6428C218.109 11.415 218.318 11.1119 218.453 10.7333C218.592 10.3548 218.661 9.93774 218.661 9.48224C218.661 9.02983 218.592 8.61435 218.453 8.2358C218.318 7.85417 218.109 7.54794 217.825 7.31712C217.542 7.08629 217.185 6.97088 216.754 6.97088C216.32 6.97088 215.96 7.08629 215.674 7.31712C215.391 7.54794 215.18 7.85417 215.042 8.2358C214.906 8.61435 214.839 9.02983 214.839 9.48224C214.839 9.93774 214.906 10.3548 215.042 10.7333C215.18 11.1119 215.391 11.415 215.674 11.6428C215.96 11.8705 216.32 11.9844 216.754 11.9844ZM222.917 13L220.831 5.90909H222.257L223.647 11.1165H223.716L225.11 5.90909H226.537L227.922 11.0934H227.991L229.371 5.90909H230.798L228.716 13H227.308L225.867 7.88033H225.761L224.321 13H222.917Z" fill="black"/>
</svg>
