<svg width="21" height="21" viewBox="0 0 21 21" fill="none" xmlns="http://www.w3.org/2000/svg">
<path fill-rule="evenodd" clip-rule="evenodd" d="M9.39573 2.84375C8.71882 2.84375 8.15416 3.36108 8.09505 4.0354C7.97146 5.44527 7.94019 6.86143 8.00132 8.27482C7.92753 8.27976 7.85375 8.28491 7.77998 8.29029L6.47666 8.3853C5.64362 8.44602 5.17794 9.37489 5.62767 10.0787C6.58683 11.5798 7.82272 12.8848 9.26948 13.924L9.79163 14.2991C10.215 14.6032 10.7852 14.6032 11.2085 14.2991L11.7307 13.924C13.1774 12.8848 14.4133 11.5798 15.3725 10.0787C15.8222 9.37489 15.3565 8.44602 14.5235 8.3853L13.2202 8.29029C13.1464 8.28491 13.0726 8.27976 12.9988 8.27482C13.06 6.86143 13.0287 5.44527 12.9051 4.0354C12.846 3.36108 12.2813 2.84375 11.6044 2.84375H9.39573ZM9.34637 8.85039C9.24687 7.28657 9.26546 5.7174 9.40199 4.15625H11.5981C11.7347 5.7174 11.7533 7.28657 11.6538 8.85039C11.6426 9.02571 11.7022 9.19818 11.8192 9.32921C11.9363 9.46023 12.1009 9.53887 12.2764 9.54751C12.5593 9.56145 12.8421 9.57872 13.1247 9.59932L14.0713 9.66832C13.2317 10.905 12.1804 11.9849 10.9649 12.8581L10.5001 13.192L10.0352 12.8581C8.81975 11.9849 7.76846 10.905 6.92886 9.66832L7.8754 9.59932C8.15802 9.57872 8.44081 9.56145 8.72374 9.54751C8.8992 9.53887 9.06387 9.46023 9.1809 9.32921C9.29792 9.19818 9.35753 9.02571 9.34637 8.85039Z" fill="black"/>
<path d="M5.03125 14.875C5.03125 14.5126 4.73744 14.2188 4.375 14.2188C4.01256 14.2188 3.71875 14.5126 3.71875 14.875V16.625C3.71875 17.4707 4.40431 18.1562 5.25 18.1562H15.75C16.5957 18.1562 17.2812 17.4707 17.2812 16.625V14.875C17.2812 14.5126 16.9874 14.2188 16.625 14.2188C16.2626 14.2188 15.9688 14.5126 15.9688 14.875V16.625C15.9688 16.7458 15.8708 16.8438 15.75 16.8438H5.25C5.12919 16.8438 5.03125 16.7458 5.03125 16.625V14.875Z" fill="black"/>
</svg>
